<?xml version="1.0" encoding="UTF-8"?>
<svg xmlns="http://www.w3.org/2000/svg" viewBox="0 0 921.08 647.42">
  <defs>
    <style>
      .cls-1 {
        stroke-width: 0px;
      }
    </style>
  </defs>
  <g id="Base">
    <path class="cls-1" d="M757.09,405.58v190.75c0,28.22-22.88,51.1-51.1,51.1H215.08c-28.22,0-51.1-22.88-51.1-51.1v-190.75c0-12.96,4.92-25.43,13.77-34.89L423.21,108.11c20.2-21.6,54.46-21.6,74.65,0l245.46,262.58c8.85,9.46,13.77,21.94,13.77,34.89Z"/>
  </g>
  <g id="Animate">
    <path id="roof" class="cls-1" d="M902.5,440.43c-4.83,0-9.65-1.87-13.29-5.6L529.36,66.15c-18.25-18.7-42.69-29-68.82-29s-50.57,10.3-68.82,29L31.87,434.83c-7.17,7.34-18.93,7.48-26.27.32-7.34-7.17-7.48-18.93-.32-26.27L365.13,40.2C390.43,14.28,424.32,0,460.54,0s70.11,14.28,95.41,40.2l359.85,368.68c7.17,7.34,7.02,19.1-.32,26.27-3.61,3.53-8.29,5.28-12.97,5.28Z"/>
  </g>
</svg>