<?xml version="1.0" encoding="UTF-8"?>
<svg xmlns="http://www.w3.org/2000/svg" viewBox="0 0 826.64 794.34">
  <defs>
    <style>
      .cls-1 {
        stroke-width: 0px;
      }
    </style>
  </defs>
  <g id="squareandpen">
    <g>
      <path class="cls-1" d="M462.12,426.27v282.37c0,18.74-15.19,33.92-33.93,33.92H85.7c-18.74,0-33.93-15.18-33.93-33.92v-342.5c0-18.73,15.19-33.92,33.93-33.92h323.33l12.65-47.22c.41-1.53.86-3.05,1.34-4.56H51.77c-28.59,0-51.77,23.18-51.77,51.78v410.34c0,28.6,23.18,51.78,51.77,51.78h410.35c28.59,0,51.77-23.18,51.77-51.78v-330.16l-51.77,13.87Z"/>
      <path class="cls-1" d="M826.64,72.95c0,18.68-7.13,37.34-21.37,51.59l-237.4,237.39c-9.05,9.06-20.33,15.57-32.7,18.89l-21.28,5.7-51.77,13.87-40.57,10.87c-.45.12-.9.18-1.33.18-3.17,0-5.72-3.05-4.84-6.34l19.36-72.25,11.09-41.38c1.02-3.79,2.33-7.48,3.93-11.03,3.61-8.04,8.67-15.39,14.95-21.67L702.11,21.37c1.78-1.78,3.63-3.45,5.54-5.01.95-.78,1.92-1.53,2.91-2.25,1.97-1.45,3.99-2.79,6.06-4.01,1.04-.61,2.09-1.19,3.15-1.75,1.05-.56,2.12-1.08,3.2-1.59.54-.25,1.09-.5,1.63-.73,1.63-.71,3.29-1.35,4.96-1.94.55-.2,1.11-.38,1.67-.56,1.68-.54,3.38-1.02,5.09-1.44.58-.14,1.15-.28,1.72-.4,1.14-.25,2.29-.47,3.44-.67,4.04-.68,8.13-1.02,12.21-1.02s8.17.34,12.21,1.02c1.15.2,2.3.42,3.44.67.57.12,1.14.26,1.72.4,1.71.42,3.41.9,5.09,1.44.56.18,1.12.36,1.67.56,1.67.59,3.33,1.23,4.96,1.94.54.23,1.09.48,1.63.73,1.08.51,2.15,1.03,3.2,1.59,1.06.56,2.11,1.14,3.15,1.75,2.07,1.22,4.09,2.56,6.06,4.01.99.72,1.96,1.47,2.91,2.25,1.91,1.56,3.76,3.23,5.54,5.01,14.24,14.24,21.37,32.92,21.37,51.58Z"/>
    </g>
  </g>
  <g id="Animate">
    <g id="penbubbles">
      <circle class="cls-1" cx="305.14" cy="550.91" r="66.86"/>
      <circle class="cls-1" cx="197.19" cy="428.76" r="55.29"/>
      <circle class="cls-1" cx="210.71" cy="659.54" r="41.78"/>
      <circle class="cls-1" cx="166.03" cy="550.91" r="24.13"/>
    </g>
  </g>
</svg>