<?xml version="1.0" encoding="UTF-8"?>
<svg xmlns="http://www.w3.org/2000/svg" viewBox="0 0 304.41 789.88">
  <defs>
    <style>
      .cls-1 {
        stroke-width: 0px;
      }
    </style>
  </defs>
  <g id="Base">
    <path class="cls-1" d="M152.21,318.67c71.74,0,129.9,58.16,129.9,129.9v189.1c0,71.74-58.16,129.9-129.9,129.9s-129.9-58.16-129.9-129.9v-189.1c0-71.74,58.16-129.9,129.9-129.9M152.21,296.37c-20.54,0-40.47,4.03-59.25,11.97-18.13,7.67-34.4,18.64-48.37,32.61-13.97,13.97-24.94,30.25-32.61,48.37-7.94,18.78-11.97,38.71-11.97,59.25v189.1c0,20.54,4.03,40.47,11.97,59.25,7.67,18.13,18.64,34.4,32.61,48.37,13.97,13.97,30.25,24.94,48.37,32.61,18.78,7.94,38.71,11.97,59.25,11.97s40.47-4.03,59.25-11.97c18.13-7.67,34.4-18.64,48.37-32.61,13.97-13.97,24.94-30.25,32.61-48.37,7.94-18.78,11.97-38.71,11.97-59.25v-189.1c0-20.54-4.03-40.47-11.97-59.25-7.67-18.13-18.64-34.4-32.61-48.37-13.97-13.97-30.25-24.94-48.37-32.61-18.78-7.94-38.71-11.97-59.25-11.97h0Z"/>
    <path class="cls-1" d="M159.12,318.67l-13.82-17.5c.29-.23,31.36-25.44,33.42-62.24,1.36-24.38-10.21-49-34.39-73.19-28.66-28.66-42.43-59.08-40.93-90.41,1.58-33,19.87-58.28,31.72-71.33,5-5.51,13.72-5.29,18.46.45l5.73,6.95-7.09-8.6h0c3.88,4.68,3.74,11.49-.35,15.99-9.55,10.51-25,31.43-26.2,57.8-1.12,24.73,10.46,49.42,34.43,73.38,28.95,28.95,42.7,59.38,40.88,90.45-2.75,46.87-40.26,76.99-41.85,78.25Z"/>
  </g>
  <g id="Animate">
    <circle id="mousescroll" class="cls-1" cx="152.21" cy="411.62" r="22.27"/>
  </g>
</svg>