<?xml version="1.0" encoding="utf-8"?>
<!-- Generator: Adobe Illustrator 28.1.0, SVG Export Plug-In . SVG Version: 6.00 Build 0)  -->
<svg version="1.1" id="Layer_1" xmlns="http://www.w3.org/2000/svg" xmlns:xlink="http://www.w3.org/1999/xlink" x="0px" y="0px"
	 viewBox="0 0 886.9 821.4" style="enable-background:new 0 0 886.9 821.4;" xml:space="preserve">
<g id="Basetv">
	<path d="M325.5,245c0-65.1,52.8-117.9,117.9-117.9S561.4,179.8,561.4,245"/>
	<path d="M816.7,739.5H70.2C31.5,739.5,0,708,0,669.3V295.6c0-38.7,31.5-70.2,70.2-70.2h746.6c38.7,0,70.2,31.5,70.2,70.2v373.7
		C886.9,708,855.4,739.5,816.7,739.5z M70.2,264.5c-17.2,0-31.2,14-31.2,31.2v373.7c0,17.2,14,31.2,31.2,31.2h746.6
		c17.2,0,31.2-14,31.2-31.2V295.6c0-17.2-14-31.2-31.2-31.2H70.2z"/>
	<path d="M152.9,720h581c28,0,50.7,22.7,50.7,50.7v0c0,28-22.7,50.7-50.7,50.7h-581c-28,0-50.7-22.7-50.7-50.7v0
		C102.3,742.7,125,720,152.9,720z"/>
</g>
<g id="Animate">
	<g id="cable">
		<path d="M492.8,196.5c-5,0-10-1.9-13.8-5.7c-7.6-7.6-7.6-20,0-27.6L636.5,5.7c7.6-7.6,20-7.6,27.6,0c7.6,7.6,7.6,20,0,27.6
			L506.6,190.8C502.8,194.6,497.8,196.5,492.8,196.5z"/>
		<path d="M394.1,196.5c-5,0-10-1.9-13.8-5.7L222.8,33.3c-7.6-7.6-7.6-20,0-27.6c7.6-7.6,20-7.6,27.6,0l157.5,157.5
			c7.6,7.6,7.6,20,0,27.6C404.1,194.6,399.1,196.5,394.1,196.5z"/>
	</g>
</g>
</svg>
