<?xml version="1.0" encoding="UTF-8"?>
<svg xmlns="http://www.w3.org/2000/svg" viewBox="0 0 450.48 753.33">
  <defs>
    <style>
      .cls-1 {
        stroke-width: 0px;
      }
    </style>
  </defs>
  <g id="Baseplug">
    <path class="cls-1" d="M56.07,154.86h338.33c30.95,0,56.07,25.13,56.07,56.07v46.65c0,124.31-100.93,225.24-225.24,225.24h0C100.93,482.82,0,381.89,0,257.58v-46.65C0,179.99,25.13,154.86,56.07,154.86Z"/>
    <g>
      <rect class="cls-1" x="306.72" y="0" width="45.31" height="249.72" rx="22.66" ry="22.66"/>
      <rect class="cls-1" x="98.45" y="0" width="45.31" height="249.72" rx="22.66" ry="22.66"/>
    </g>
  </g>
  <g id="Animate">
    <path id="wire" class="cls-1" d="M246.4,380.87l16.15,20.46c-.34.27-36.66,29.74-39.06,72.75-1.59,28.5,11.93,57.28,40.2,85.54,33.5,33.5,49.59,69.05,47.83,105.67-1.85,38.57-23.22,68.11-37.07,83.37-5.84,6.44-16.04,6.18-21.57-.53l-6.7-8.13,8.29,10.06h0c-4.55-5.49-4.33-13.47.46-18.75,11.16-12.3,29.17-36.73,30.56-67.49,1.31-28.9-12.23-57.76-40.24-85.77-33.83-33.83-49.91-69.4-47.78-105.72,3.21-54.78,47.05-89.99,48.92-91.46Z"/>
  </g>
</svg>