<?xml version="1.0" encoding="UTF-8"?>
<svg xmlns="http://www.w3.org/2000/svg" viewBox="0 0 400.26 902.74">
  <defs>
    <style>
      .cls-1 {
      stroke-width: 0px;
      }
    </style>
  </defs>
  <g id="Base">
    <path class="cls-1"
      d="M257.79,306.92c13.49,0,24.43,10.94,24.43,24.43,0,6.75-2.74,12.86-7.16,17.28-4.43,4.42-10.54,7.16-17.28,7.16h-5.64v189c66.27,21.83,114.12,84.24,114.12,157.82,0,91.75-74.38,166.13-166.13,166.13s-166.13-74.38-166.13-166.13c0-73.58,47.84-136,114.12-157.82v-189h-5.64c-13.49,0-24.43-10.94-24.43-24.43,0-6.74,2.74-12.85,7.15-17.27,4.43-4.42,10.54-7.15,17.28-7.15h115.31M257.79,272.92h-115.31c-15.59,0-30.26,6.07-41.3,17.09-11.06,11.06-17.13,25.73-17.13,41.33,0,21.93,12.15,41.09,30.07,51.08v139.44c-11.14,5.31-21.79,11.65-31.83,18.98-16.64,12.14-31.27,26.71-43.47,43.31C13.42,618.68,0,659.64,0,702.61c0,27,5.3,53.22,15.74,77.91,10.08,23.84,24.51,45.24,42.88,63.6,18.37,18.37,39.77,32.79,63.6,42.88,24.7,10.45,50.91,15.74,77.91,15.74s53.22-5.3,77.91-15.74c23.84-10.08,45.24-24.51,63.6-42.88,18.37-18.37,32.79-39.77,42.88-63.6,10.45-24.7,15.74-50.91,15.74-77.91,0-42.97-13.42-83.93-38.81-118.46-12.21-16.6-26.83-31.17-43.47-43.31-10.04-7.32-20.69-13.67-31.83-18.98v-139.4c4.69-2.61,9.04-5.88,12.94-9.78,11.06-11.06,17.13-25.73,17.13-41.34,0-32.22-26.21-58.43-58.43-58.43h0Z" />
    <path class="cls-1" d="M333.26,681.93c-.31.34-.62.67-.93,1.01-.04-.27-.08-.56-.13-.83l1.05-.18Z" />
    <path class="cls-1"
      d="M325.31,704.54c0,70.93-57.49,128.42-128.42,128.42s-128.41-57.49-128.41-128.42c0,0,70.12-48.57,123.44,0,53.31,48.58,133.38,0,133.38,0Z" />
  </g>
  <g id="Animate">
    <g id="chembubbles">
      <circle class="cls-1" cx="235.1" cy="128.77" r="48.52" />
      <circle class="cls-1" cx="156.77" cy="40.13" r="40.13" />
      <circle class="cls-1" cx="166.58" cy="207.6" r="30.31" />
      <circle class="cls-1" cx="134.16" cy="128.77" r="17.51" />
    </g>
  </g>
</svg>